<svg width="650" height="650" viewBox="0 0 650 650" fill="none" xmlns="http://www.w3.org/2000/svg">
    <rect width="650" height="650" fill="#1C1917"/>
    <rect x="75.5" y="75.5" width="499" height="499" fill="#FFF7ED" stroke="#FFF7ED"/>
    <path opacity="0.38" d="M248.45 438.315C248.03 435.165 248.03 431.805 248.45 428.235C258.53 427.185 265.775 426.24 270.185 425.4C274.595 424.35 277.325 422.25 278.375 419.1C279.425 415.95 279.95 410.595 279.95 403.035V256.56C279.95 247.74 279.425 241.44 278.375 237.66C277.325 233.88 274.595 231.465 270.185 230.415C265.985 229.155 259.055 228.105 249.395 227.265C248.975 224.115 248.975 220.755 249.395 217.185C254.435 217.185 258.635 217.29 261.995 217.5C265.565 217.5 269.24 217.5 273.02 217.5C276.8 217.5 281.525 217.605 287.195 217.815C293.075 217.815 300.845 217.815 310.505 217.815C322.475 217.815 334.655 217.815 347.045 217.815C359.435 217.605 370.88 217.5 381.38 217.5C392.09 217.5 400.7 217.5 407.21 217.5C413.93 217.29 417.5 217.185 417.92 217.185C418.97 225.165 420.125 233.46 421.385 242.07C422.645 250.68 424.01 259.815 425.48 269.475C423.8 269.685 422.015 269.79 420.125 269.79C418.445 269.79 416.765 269.685 415.085 269.475C409.625 255.405 403.22 245.535 395.87 239.865C388.31 233.775 376.445 230.73 360.275 230.73H314.6V319.875H335.39C345.47 319.875 353.135 319.245 358.385 317.985C363.635 316.515 367.52 313.47 370.04 308.85C372.56 304.02 374.555 296.46 376.025 286.17C379.805 285.54 383.375 285.54 386.735 286.17C386.525 294.99 386.315 302.025 386.105 307.275C386.105 312.315 386.105 316.305 386.105 319.245C386.105 322.185 386.105 324.915 386.105 327.435C386.105 329.745 386.105 332.37 386.105 335.31C386.105 338.25 386.105 342.345 386.105 347.595C386.315 352.845 386.525 359.985 386.735 369.015C383.585 369.645 380.015 369.645 376.025 369.015C374.765 357.885 372.875 349.905 370.355 345.075C367.835 340.035 364.055 336.885 359.015 335.625C354.185 334.365 347.255 333.735 338.225 333.735H314.6V398.94C314.6 405.45 314.81 410.49 315.23 414.06C315.65 417.63 316.91 420.465 319.01 422.565C321.11 424.455 324.26 425.715 328.46 426.345C332.87 426.975 339.17 427.605 347.36 428.235C347.99 431.595 347.99 434.955 347.36 438.315C342.95 438.315 337.595 438.21 331.295 438C324.995 438 318.695 438 312.395 438C306.305 437.79 301.16 437.685 296.96 437.685C292.97 437.685 288.035 437.79 282.155 438C276.275 438 270.29 438 264.2 438C258.32 438.21 253.07 438.315 248.45 438.315Z" fill="#1C1917"/>
    <path d="M240 421.3C239.6 418.3 239.6 415.1 240 411.7C249.6 410.7 256.5 409.8 260.7 409C264.9 408 267.5 406 268.5 403C269.5 400 270 394.9 270 387.7V248.2C270 239.8 269.5 233.8 268.5 230.2C267.5 226.6 264.9 224.3 260.7 223.3C256.7 222.1 250.1 221.1 240.9 220.3C240.5 217.3 240.5 214.1 240.9 210.7C245.7 210.7 249.7 210.8 252.9 211C256.3 211 259.8 211 263.4 211C267 211 271.5 211.1 276.9 211.3C282.5 211.3 289.9 211.3 299.1 211.3C310.5 211.3 322.1 211.3 333.9 211.3C345.7 211.1 356.6 211 366.6 211C376.8 211 385 211 391.2 211C397.6 210.8 401 210.7 401.4 210.7C402.4 218.3 403.5 226.2 404.7 234.4C405.9 242.6 407.2 251.3 408.6 260.5C407 260.7 405.3 260.8 403.5 260.8C401.9 260.8 400.3 260.7 398.7 260.5C393.5 247.1 387.4 237.7 380.4 232.3C373.2 226.5 361.9 223.6 346.5 223.6H303V308.5H322.8C332.4 308.5 339.7 307.9 344.7 306.7C349.7 305.3 353.4 302.4 355.8 298C358.2 293.4 360.1 286.2 361.5 276.4C365.1 275.8 368.5 275.8 371.7 276.4C371.5 284.8 371.3 291.5 371.1 296.5C371.1 301.3 371.1 305.1 371.1 307.9C371.1 310.7 371.1 313.3 371.1 315.7C371.1 317.9 371.1 320.4 371.1 323.2C371.1 326 371.1 329.9 371.1 334.9C371.3 339.9 371.5 346.7 371.7 355.3C368.7 355.9 365.3 355.9 361.5 355.3C360.3 344.7 358.5 337.1 356.1 332.5C353.7 327.7 350.1 324.7 345.3 323.5C340.7 322.3 334.1 321.7 325.5 321.7H303V383.8C303 390 303.2 394.8 303.6 398.2C304 401.6 305.2 404.3 307.2 406.3C309.2 408.1 312.2 409.3 316.2 409.9C320.4 410.5 326.4 411.1 334.2 411.7C334.8 414.9 334.8 418.1 334.2 421.3C330 421.3 324.9 421.2 318.9 421C312.9 421 306.9 421 300.9 421C295.1 420.8 290.2 420.7 286.2 420.7C282.4 420.7 277.7 420.8 272.1 421C266.5 421 260.8 421 255 421C249.4 421.2 244.4 421.3 240 421.3Z" fill="#1C1917"/>
    <line x1="209.677" y1="285.64" x2="486.677" y2="475.64" stroke="#FFF7ED" stroke-width="13"/>
</svg>
